<?xml version="1.0" encoding="utf-8"?>
<!-- Generator: Adobe Illustrator 22.1.0, SVG Export Plug-In . SVG Version: 6.00 Build 0)  -->
<svg version="1.1" id="Camada_1" xmlns="http://www.w3.org/2000/svg" xmlns:xlink="http://www.w3.org/1999/xlink" x="0px" y="0px"
	 viewBox="0 0 10 10" style="enable-background:new 0 0 10 10;" xml:space="preserve">
<style type="text/css">
	.st0{fill:#111111;}
	.st1{fill:none;}
</style>
<path id="Mask-2" class="st0" d="M8.7,10L8.7,10L5,6.3L6.3,5L10,8.7L8.7,10L8.7,10z M1.3,10L1.3,10L0,8.7L3.7,5l0,0L0,1.3L1.3,0
	L5,3.7L3.7,5L5,6.3L1.3,10L1.3,10z M6.3,5L6.3,5L5,3.7L8.7,0L10,1.3L6.3,5L6.3,5z"/>
<path class="st1" d="M8.7,10L8.7,10L5,6.3L6.3,5L10,8.7L8.7,10L8.7,10z M1.3,10L1.3,10L0,8.7L3.7,5l0,0L0,1.3L1.3,0L5,3.7L3.7,5
	L5,6.3L1.3,10L1.3,10z M6.3,5L6.3,5L5,3.7L8.7,0L10,1.3L6.3,5L6.3,5z"/>
</svg>
