<svg xmlns="http://www.w3.org/2000/svg" xmlns:xlink="http://www.w3.org/1999/xlink" width="24" height="22" viewBox="0 0 24 22">
  <defs>
    <clipPath id="clip-path">
      <rect width="24" height="22" fill="none"/>
    </clipPath>
    <clipPath id="clip-path-2">
      <path id="Mask" d="M11.492,21.759A11.487,11.487,0,0,1,0,10.217,11.631,11.631,0,0,1,1.3,4.859,11.413,11.413,0,0,1,4.909.772,4.282,4.282,0,0,1,7.313,0,2.541,2.541,0,0,1,9.479,1a2.653,2.653,0,0,1,.329,2.6c-.032.115-.063.218-.121.4-.091.292-.145.489-.178.606s-.047.172-.059.172H9.445a.746.746,0,0,0,.649.3,10.594,10.594,0,0,0,2.468-.6,12.778,12.778,0,0,1,3.8-.712,7.3,7.3,0,0,1,3.208.757,5.846,5.846,0,0,1,3.023,3.712,10.282,10.282,0,0,1-.026,5.138A11.548,11.548,0,0,1,11.492,21.759ZM7.359,2.1h0A2.34,2.34,0,0,0,6.1,2.5,9.327,9.327,0,0,0,3.153,5.835a9.513,9.513,0,0,0-1.064,4.383,9.411,9.411,0,0,0,18.453,2.621,8.137,8.137,0,0,0,.068-3.826A3.911,3.911,0,0,0,18.646,6.4a5.225,5.225,0,0,0-2.3-.534,10.662,10.662,0,0,0-3.165.61,12.5,12.5,0,0,1-3.306.752A2.454,2.454,0,0,1,7.827,6.1c-.61-.766-.571-1.325-.134-2.728l.01-.032c.043-.14.069-.225.093-.312.135-.484.115-.641.044-.727l-.067-.09c-.048-.072-.2-.115-.415-.115Zm5.083,16.8a2,2,0,1,1,1.994-2A2,2,0,0,1,12.442,18.9ZM7.218,16.99a2,2,0,1,1,1.994-2A2,2,0,0,1,7.218,16.99Zm9.023-3.816a2.957,2.957,0,1,1,2.944-2.957A2.954,2.954,0,0,1,16.241,13.175Zm0-3.816a.859.859,0,1,0,.854.859A.857.857,0,0,0,16.241,9.359ZM4.843,12.22a2,2,0,1,1,2-2A2,2,0,0,1,4.843,12.22Z" transform="translate(0 0)" fill="#111"/>
    </clipPath>
    <clipPath id="clip-path-3">
      <rect width="23" height="23" fill="none"/>
    </clipPath>
  </defs>
  <g id="Icon_palette" data-name="Icon/palette" transform="translate(0 0)" clip-path="url(#clip-path)">
    <rect id="Box" width="23" height="23" transform="translate(0 0)" fill="none"/>
    <path id="Mask-2" data-name="Mask" d="M11.492,21.759A11.487,11.487,0,0,1,0,10.217,11.631,11.631,0,0,1,1.3,4.859,11.413,11.413,0,0,1,4.909.772,4.282,4.282,0,0,1,7.313,0,2.541,2.541,0,0,1,9.479,1a2.653,2.653,0,0,1,.329,2.6c-.032.115-.063.218-.121.4-.091.292-.145.489-.178.606s-.047.172-.059.172H9.445a.746.746,0,0,0,.649.3,10.594,10.594,0,0,0,2.468-.6,12.778,12.778,0,0,1,3.8-.712,7.3,7.3,0,0,1,3.208.757,5.846,5.846,0,0,1,3.023,3.712,10.282,10.282,0,0,1-.026,5.138A11.548,11.548,0,0,1,11.492,21.759ZM7.359,2.1h0A2.34,2.34,0,0,0,6.1,2.5,9.327,9.327,0,0,0,3.153,5.835a9.513,9.513,0,0,0-1.064,4.383,9.411,9.411,0,0,0,18.453,2.621,8.137,8.137,0,0,0,.068-3.826A3.911,3.911,0,0,0,18.646,6.4a5.225,5.225,0,0,0-2.3-.534,10.662,10.662,0,0,0-3.165.61,12.5,12.5,0,0,1-3.306.752A2.454,2.454,0,0,1,7.827,6.1c-.61-.766-.571-1.325-.134-2.728l.01-.032c.043-.14.069-.225.093-.312.135-.484.115-.641.044-.727l-.067-.09c-.048-.072-.2-.115-.415-.115Zm5.083,16.8a2,2,0,1,1,1.994-2A2,2,0,0,1,12.442,18.9ZM7.218,16.99a2,2,0,1,1,1.994-2A2,2,0,0,1,7.218,16.99Zm9.023-3.816a2.957,2.957,0,1,1,2.944-2.957A2.954,2.954,0,0,1,16.241,13.175Zm0-3.816a.859.859,0,1,0,.854.859A.857.857,0,0,0,16.241,9.359ZM4.843,12.22a2,2,0,1,1,2-2A2,2,0,0,1,4.843,12.22Z" transform="translate(0 0.405)" fill="#111"/>
    <g transform="translate(0 0.405)" clip-path="url(#clip-path-2)">
      <g id="Fill_Color_Title" data-name="Fill/Color/Title" transform="translate(0 -0.405)" clip-path="url(#clip-path-3)">
        <rect id="Fill_Color_Black" data-name="Fill/Color/Black" width="23" height="23" transform="translate(0 0)"/>
      </g>
    </g>
  </g>
</svg>
