<svg xmlns="http://www.w3.org/2000/svg" xmlns:xlink="http://www.w3.org/1999/xlink" width="54" height="53" viewBox="0 0 54 53">
  <defs>
    <clipPath id="clip-path">
      <rect width="54" height="53" fill="none"/>
    </clipPath>
    <clipPath id="clip-path-2">
      <path id="Mask" d="M26.094,52.187c-7.026,0-7.955-.03-10.758-.155-4.815-.221-8.3-1.564-10.955-4.225s-4-6.143-4.222-10.953C.03,34.058,0,33.13,0,26.094s.03-7.964.157-10.758C.376,10.523,1.718,7.042,4.38,4.38s6.143-4,10.955-4.222C18.129.03,19.056,0,26.094,0s7.964.03,10.761.157c4.81.219,8.291,1.56,10.953,4.222s4,6.14,4.225,10.955c.125,2.8.155,3.733.155,10.758s-.03,7.955-.155,10.761c-.221,4.814-1.564,8.294-4.225,10.953s-6.139,4-10.953,4.225C34.048,52.157,33.118,52.187,26.094,52.187Zm0-47.485c-6.988,0-7.81.027-10.544.153-4.637.209-6.628,1.633-7.844,2.851-2.318,2.315-2.741,5.408-2.851,7.844C4.728,18.283,4.7,19.106,4.7,26.094s.027,7.813.153,10.544c.209,4.636,1.633,6.629,2.851,7.846,2.314,2.314,5.408,2.739,7.844,2.851,2.743.124,3.567.15,10.544.15s7.8-.026,10.544-.15c4.637-.213,6.629-1.635,7.846-2.851,2.314-2.317,2.739-5.41,2.851-7.846.124-2.741.15-3.564.15-10.544s-.026-7.8-.15-10.544c-.213-4.638-1.635-6.628-2.851-7.844-2.318-2.318-5.411-2.741-7.846-2.851C33.906,4.728,33.084,4.7,26.094,4.7Zm0,34.792a13.4,13.4,0,1,1,13.4-13.4A13.414,13.414,0,0,1,26.094,39.494Zm0-22.1a8.7,8.7,0,1,0,8.7,8.7A8.708,8.708,0,0,0,26.094,17.395Zm13.931-2.1a3.132,3.132,0,1,1,3.13-3.13A3.135,3.135,0,0,1,40.024,15.3Z" fill="#111"/>
    </clipPath>
    <clipPath id="clip-path-3">
      <rect width="52" height="52" fill="none"/>
    </clipPath>
  </defs>
  <g id="Icon_logo-twitter" data-name="Icon/logo-twitter" clip-path="url(#clip-path)">
    <rect id="Box" width="52" height="52" transform="translate(0)" fill="none"/>
    <g id="Grupo_226" data-name="Grupo 226" transform="translate(0 0)" clip-path="url(#clip-path-2)">
      <g id="Fill_Color_Title" data-name="Fill/Color/Title" transform="translate(0 0)" clip-path="url(#clip-path-3)">
        <rect id="Fill_Color_Black" data-name="Fill/Color/Black" width="52" height="52"/>
      </g>
    </g>
  </g>
</svg>
