<svg xmlns="http://www.w3.org/2000/svg" xmlns:xlink="http://www.w3.org/1999/xlink" width="23" height="22" viewBox="0 0 23 22">
  <defs>
    <clipPath id="clip-path">
      <rect width="23" height="22" fill="none"/>
    </clipPath>
    <clipPath id="clip-path-2">
      <path id="Mask" d="M16.912,23H1.087A1.068,1.068,0,0,1,0,21.955V8.649A1.068,1.068,0,0,1,1.087,7.6H2.967V8.649A1.066,1.066,0,0,0,3.985,9.692l-1.809,0V20.909H15.824V9.694H14a1.067,1.067,0,0,0,1.033-1.046V7.6h1.879A1.069,1.069,0,0,1,18,8.649V21.955A1.069,1.069,0,0,1,16.912,23ZM9,19.2a1.069,1.069,0,0,1-1.088-1.045V17.109h0a2.972,2.972,0,0,1-1.976-2.757A3.011,3.011,0,0,1,9,11.4a3.011,3.011,0,0,1,3.066,2.947,2.969,2.969,0,0,1-1.977,2.755l0-.855A1.069,1.069,0,0,0,9,15.206a.894.894,0,1,0-.008,0,1.069,1.069,0,0,0-1.085,1.045v.855a3.194,3.194,0,0,0,2.176,0v1.046A1.068,1.068,0,0,1,9,19.2ZM5.142,7.6H2.967V5.8A5.656,5.656,0,0,1,4.719,1.684,6.132,6.132,0,0,1,9,0a6.131,6.131,0,0,1,4.28,1.684A5.656,5.656,0,0,1,15.032,5.8V7.6H12.857V5.8A3.743,3.743,0,0,0,9,2.091,3.744,3.744,0,0,0,5.142,5.8V7.6Z" transform="translate(-0.126 0)" fill="#111"/>
    </clipPath>
    <clipPath id="clip-path-3">
      <rect width="23" height="23" fill="none"/>
    </clipPath>
  </defs>
  <g id="Icon_lock" data-name="Icon/lock" transform="translate(0 0)" clip-path="url(#clip-path)">
    <rect id="Box" width="23" height="23" transform="translate(0 0)" fill="none"/>
    <path id="Mask-2" data-name="Mask" d="M16.912,23H1.087A1.068,1.068,0,0,1,0,21.955V8.649A1.068,1.068,0,0,1,1.087,7.6H2.967V8.649A1.066,1.066,0,0,0,3.985,9.692l-1.809,0V20.909H15.824V9.694H14a1.067,1.067,0,0,0,1.033-1.046V7.6h1.879A1.069,1.069,0,0,1,18,8.649V21.955A1.069,1.069,0,0,1,16.912,23ZM9,19.2a1.069,1.069,0,0,1-1.088-1.045V17.109h0a2.972,2.972,0,0,1-1.976-2.757A3.011,3.011,0,0,1,9,11.4a3.011,3.011,0,0,1,3.066,2.947,2.969,2.969,0,0,1-1.977,2.755l0-.855A1.069,1.069,0,0,0,9,15.206a.894.894,0,1,0-.008,0,1.069,1.069,0,0,0-1.085,1.045v.855a3.194,3.194,0,0,0,2.176,0v1.046A1.068,1.068,0,0,1,9,19.2ZM5.142,7.6H2.967V5.8A5.656,5.656,0,0,1,4.719,1.684,6.132,6.132,0,0,1,9,0a6.131,6.131,0,0,1,4.28,1.684A5.656,5.656,0,0,1,15.032,5.8V7.6H12.857V5.8A3.743,3.743,0,0,0,9,2.091,3.744,3.744,0,0,0,5.142,5.8V7.6Z" transform="translate(2 0)" fill="#111"/>
    <g transform="translate(2.126 0)" clip-path="url(#clip-path-2)">
      <g id="Fill_Color_Title" data-name="Fill/Color/Title" transform="translate(-2.126 0)" clip-path="url(#clip-path-3)">
        <rect id="Fill_Color_Black" data-name="Fill/Color/Black" width="23" height="23"/>
      </g>
    </g>
  </g>
</svg>
