<svg class="svg-sprites" id="skin-sprite" xmlns="http://www.w3.org/2000/svg" xmlns:xlink="http://www.w3.org/1999/xlink">
    <symbol viewBox="0 0 0 0" id="blur" xmlns="http://www.w3.org/2000/svg"><defs><filter id="agaussian_blur"><feGaussianBlur in="SourceGraphic" stdDeviation="1"/></filter></defs></symbol>
    <symbol viewBox="0 0 20 20" id="z-cart" xmlns="http://www.w3.org/2000/svg"><defs><clipPath id="ba"><path fill="none" d="M0 0h20v20H0z"/></clipPath><clipPath id="bb"><path d="M15.2 20H.8a.818.818 0 01-.8-.833V5a.818.818 0 01.8-.833H4v1.666H1.6v12.5h12.8v-12.5H12V4.168h-1.6v1.664H12V7.5a.8.8 0 11-1.6 0V5.833H5.6V4.168h4.8A2.541 2.541 0 009.7 2.4 2.336 2.336 0 008 1.667a2.455 2.455 0 00-2.4 2.5H4A4.091 4.091 0 018 0a4.091 4.091 0 014 4.167h3.2A.818.818 0 0116 5v14.166a.818.818 0 01-.8.834zM4.8 8.333A.818.818 0 014 7.5V5.833h1.6V7.5a.818.818 0 01-.8.833z" fill="#111"/></clipPath></defs><g data-name="Icon/Shop 2" transform="translate(0 -.001)" clip-path="url(#ba)"><path fill="none" d="M0 0h20v20H0z"/><path data-name="Mask" d="M17.2 20H2.8a.818.818 0 01-.8-.833V5a.818.818 0 01.8-.833H6v1.666H3.6v12.5h12.8v-12.5H14V4.168h-1.6v1.664H14V7.5a.8.8 0 11-1.6 0V5.833H7.6V4.168h4.8a2.541 2.541 0 00-.7-1.768 2.336 2.336 0 00-1.7-.733 2.455 2.455 0 00-2.4 2.5H6A4.091 4.091 0 0110 0a4.091 4.091 0 014 4.167h3.2A.818.818 0 0118 5v14.166a.818.818 0 01-.8.834zM6.8 8.333A.818.818 0 016 7.5V5.833h1.6V7.5a.818.818 0 01-.8.833z" fill="#111"/><g transform="translate(2)" clip-path="url(#bb)"><g data-name="Fill/Color/Title" transform="translate(-2)" clip-path="url(#ba)"><path data-name="Fill/Color/Black" d="M0 0h20v20H0z"/></g></g></g></symbol>
    <symbol viewBox="0 0 22 22" id="z-chat" xmlns="http://www.w3.org/2000/svg"><defs><clipPath id="ca"><path fill="none" d="M0 0h22v22H0z"/></clipPath><clipPath id="cb"><path d="M18.15 20a1.115 1.115 0 01-.577-.161l-5.439-3.289H11.5a.953.953 0 110-1.9h.95a1.12 1.12 0 01.581.159l4.077 2.465V15.6a1 1 0 011.045-.948h2.756V4.4A1.05 1.05 0 0123 4.4v11.2a1 1 0 01-1.045.948H19.2v2.5a1 1 0 01-1.05.952zm-13.3-2.586a1.13 1.13 0 01-.728-.265.9.9 0 01-.321-.685V13.1H1.045A1 1 0 010 12.154V.948A1 1 0 011.045 0h17.108A1 1 0 0119.2.948v11.206a1 1 0 01-1.045.948h-6.32l-6.38 4.134a1.107 1.107 0 01-.604.178zM2.091 1.9v9.31h2.756a1 1 0 011.045.948v2.468l5-3.239a1.127 1.127 0 01.608-.177h5.608V1.9z" transform="translate(0 -.063)" fill="#111"/></clipPath><clipPath id="cc"><path fill="none" d="M0 0h23v23H0z"/></clipPath></defs><g data-name="Icon/chat-46" clip-path="url(#ca)"><path fill="none" d="M0 0h23v23H0z"/><path data-name="Mask" d="M18.15 21a1.115 1.115 0 01-.577-.161l-5.439-3.289H11.5a.953.953 0 110-1.9h.95a1.12 1.12 0 01.581.159l4.077 2.465V16.6a1 1 0 011.045-.948h2.756V5.4A1.05 1.05 0 0123 5.4v11.2a1 1 0 01-1.045.948H19.2v2.5a1 1 0 01-1.05.952zm-13.3-2.586a1.13 1.13 0 01-.728-.265.9.9 0 01-.321-.685V14.1H1.045A1 1 0 010 13.154V1.948A1 1 0 011.045 1h17.108a1 1 0 011.047.948v11.206a1 1 0 01-1.045.948h-6.32l-6.38 4.134a1.107 1.107 0 01-.604.178zM2.091 2.9v9.31h2.756a1 1 0 011.045.948v2.468l5-3.239a1.127 1.127 0 01.608-.177h5.608V2.9z" fill="#111"/><g transform="translate(0 1.063)" clip-path="url(#cb)"><g data-name="Fill/Color/Title" transform="translate(0 -1.063)" clip-path="url(#cc)"><path data-name="Fill/Color/Black" d="M0 0h23v23H0z"/></g></g></g></symbol>
    <symbol id="z-close" viewBox="0 0 10 10" xml:space="preserve" xmlns="http://www.w3.org/2000/svg"><style>.dst0{fill:#111}.dst1{fill:none}</style><path id="dMask-2" class="dst0" d="M8.7 10L5 6.3 6.3 5 10 8.7 8.7 10zm-7.4 0L0 8.7 3.7 5 0 1.3 1.3 0 5 3.7 3.7 5 5 6.3 1.3 10zm5-5L5 3.7 8.7 0 10 1.3 6.3 5z"/><path class="dst1" d="M8.7 10L5 6.3 6.3 5 10 8.7 8.7 10zm-7.4 0L0 8.7 3.7 5 0 1.3 1.3 0 5 3.7 3.7 5 5 6.3 1.3 10zm5-5L5 3.7 8.7 0 10 1.3 6.3 5z"/></symbol>
    <symbol viewBox="0 0 24 22" id="z-colors" xmlns="http://www.w3.org/2000/svg"><defs><clipPath id="ea"><path fill="none" d="M0 0h24v22H0z"/></clipPath><clipPath id="eb"><path d="M11.492 21.759A11.487 11.487 0 010 10.217a11.631 11.631 0 011.3-5.358A11.413 11.413 0 014.909.772 4.282 4.282 0 017.313 0a2.541 2.541 0 012.166 1 2.653 2.653 0 01.329 2.6c-.032.115-.063.218-.121.4-.091.292-.145.489-.178.606s-.047.172-.059.172h-.005a.746.746 0 00.649.3 10.594 10.594 0 002.468-.6 12.778 12.778 0 013.8-.712 7.3 7.3 0 013.208.757 5.846 5.846 0 013.023 3.712 10.282 10.282 0 01-.026 5.138 11.548 11.548 0 01-11.075 8.386zM7.359 2.1a2.34 2.34 0 00-1.259.4 9.327 9.327 0 00-2.947 3.335 9.513 9.513 0 00-1.064 4.383 9.411 9.411 0 0018.453 2.621 8.137 8.137 0 00.068-3.826A3.911 3.911 0 0018.646 6.4a5.225 5.225 0 00-2.3-.534 10.662 10.662 0 00-3.165.61 12.5 12.5 0 01-3.306.752A2.454 2.454 0 017.827 6.1c-.61-.766-.571-1.325-.134-2.728l.01-.032c.043-.14.069-.225.093-.312.135-.484.115-.641.044-.727l-.067-.09c-.048-.072-.2-.115-.415-.115zm5.083 16.8a2 2 0 111.994-2 2 2 0 01-1.994 2zm-5.224-1.91a2 2 0 111.994-2 2 2 0 01-1.994 2zm9.023-3.816a2.957 2.957 0 112.944-2.957 2.954 2.954 0 01-2.944 2.958zm0-3.816a.859.859 0 10.854.859.857.857 0 00-.854-.858zM4.843 12.22a2 2 0 112-2 2 2 0 01-2 2z" fill="#111"/></clipPath><clipPath id="ec"><path fill="none" d="M0 0h23v23H0z"/></clipPath></defs><g data-name="Icon/palette" clip-path="url(#ea)"><path fill="none" d="M0 0h23v23H0z"/><path data-name="Mask" d="M11.492 22.164A11.487 11.487 0 010 10.622a11.631 11.631 0 011.3-5.358 11.413 11.413 0 013.609-4.087A4.282 4.282 0 017.313.405a2.541 2.541 0 012.166 1 2.653 2.653 0 01.329 2.6c-.032.115-.063.218-.121.4-.091.292-.145.489-.178.606s-.047.172-.059.172h-.005a.746.746 0 00.649.3 10.594 10.594 0 002.468-.6 12.778 12.778 0 013.8-.712 7.3 7.3 0 013.208.757 5.846 5.846 0 013.023 3.712 10.282 10.282 0 01-.026 5.138 11.548 11.548 0 01-11.075 8.386zM7.359 2.505a2.34 2.34 0 00-1.259.4A9.327 9.327 0 003.153 6.24a9.513 9.513 0 00-1.064 4.383 9.411 9.411 0 0018.453 2.621 8.137 8.137 0 00.068-3.826 3.911 3.911 0 00-1.964-2.613 5.225 5.225 0 00-2.3-.534 10.662 10.662 0 00-3.165.61 12.5 12.5 0 01-3.306.752 2.454 2.454 0 01-2.048-1.128c-.61-.766-.571-1.325-.134-2.728l.01-.032c.043-.14.069-.225.093-.312.135-.484.115-.641.044-.727l-.067-.09c-.048-.072-.2-.115-.415-.115zm5.083 16.8a2 2 0 111.994-2 2 2 0 01-1.994 2zm-5.224-1.91a2 2 0 111.994-2 2 2 0 01-1.994 2zm9.023-3.816a2.957 2.957 0 112.944-2.957 2.954 2.954 0 01-2.944 2.958zm0-3.816a.859.859 0 10.854.859.857.857 0 00-.854-.858zM4.843 12.625a2 2 0 112-2 2 2 0 01-2 2z" fill="#111"/><g transform="translate(0 .405)" clip-path="url(#eb)"><g data-name="Fill/Color/Title" transform="translate(0 -.405)" clip-path="url(#ec)"><path data-name="Fill/Color/Black" d="M0 0h23v23H0z"/></g></g></g></symbol>
    <symbol viewBox="0 0 20 20" id="z-heart" xmlns="http://www.w3.org/2000/svg"><defs><clipPath id="fa"><path fill="none" d="M0 0h20v20H0z"/></clipPath><clipPath id="fb"><path d="M10 19a.877.877 0 01-.643-.282l-7.637-8.1a6.494 6.494 0 010-8.8A5.635 5.635 0 0110 1.8a5.636 5.636 0 018.282.018 6.5 6.5 0 010 8.8l-7.64 8.1A.877.877 0 0110 19zM5.865 1.928A3.911 3.911 0 003 3.185a4.484 4.484 0 000 6.072l7 7.416 7-7.416a4.484 4.484 0 000-6.071 3.889 3.889 0 00-5.727 0 4.227 4.227 0 00-.511.663.882.882 0 01-1.516 0 4.252 4.252 0 00-.51-.663 3.913 3.913 0 00-2.871-1.258z" fill="#111"/></clipPath></defs><g data-name="Icon/heart-2" transform="translate(0 -.001)" clip-path="url(#fa)"><path fill="none" d="M0 0h20v20H0z"/><path data-name="Mask" d="M10.004 19.5a.877.877 0 01-.643-.282l-7.637-8.1a6.494 6.494 0 010-8.8 5.635 5.635 0 018.28-.018 5.636 5.636 0 018.282.018 6.5 6.5 0 010 8.8l-7.64 8.1a.877.877 0 01-.642.282zM5.869 2.428a3.911 3.911 0 00-2.865 1.257 4.484 4.484 0 000 6.072l7 7.416 7-7.416a4.484 4.484 0 000-6.071 3.889 3.889 0 00-5.727 0 4.227 4.227 0 00-.511.663.882.882 0 01-1.516 0 4.252 4.252 0 00-.51-.663 3.913 3.913 0 00-2.871-1.258z" fill="#111"/><g transform="translate(.004 .5)" clip-path="url(#fb)"><g data-name="Fill/Color/Title" transform="translate(-.004 -.5)" clip-path="url(#fa)"><path data-name="Fill/Color/Black" d="M0 0h20v20H0z"/></g></g></g></symbol>
    <symbol viewBox="0 0 54 53" id="z-instagram" xmlns="http://www.w3.org/2000/svg"><defs><clipPath id="ga"><path fill="none" d="M0 0h54v53H0z"/></clipPath><clipPath id="gb"><path d="M26.094 52.187c-7.026 0-7.955-.03-10.758-.155-4.815-.221-8.3-1.564-10.955-4.225s-4-6.143-4.222-10.953C.03 34.058 0 33.13 0 26.094s.03-7.964.157-10.758C.376 10.523 1.718 7.042 4.38 4.38s6.143-4 10.955-4.222C18.129.03 19.056 0 26.094 0s7.964.03 10.761.157c4.81.219 8.291 1.56 10.953 4.222s4 6.14 4.225 10.955c.125 2.8.155 3.733.155 10.758s-.03 7.955-.155 10.761c-.221 4.814-1.564 8.294-4.225 10.953s-6.139 4-10.953 4.225c-2.807.126-3.737.156-10.761.156zm0-47.485c-6.988 0-7.81.027-10.544.153-4.637.209-6.628 1.633-7.844 2.851-2.318 2.315-2.741 5.408-2.851 7.844-.127 2.733-.155 3.556-.155 10.544s.027 7.813.153 10.544c.209 4.636 1.633 6.629 2.851 7.846 2.314 2.314 5.408 2.739 7.844 2.851 2.743.124 3.567.15 10.544.15s7.8-.026 10.544-.15c4.637-.213 6.629-1.635 7.846-2.851 2.314-2.317 2.739-5.41 2.851-7.846.124-2.741.15-3.564.15-10.544s-.026-7.8-.15-10.544c-.213-4.638-1.635-6.628-2.851-7.844-2.318-2.318-5.411-2.741-7.846-2.851-2.73-.127-3.552-.155-10.542-.155zm0 34.792a13.4 13.4 0 1113.4-13.4 13.414 13.414 0 01-13.4 13.4zm0-22.1a8.7 8.7 0 108.7 8.7 8.708 8.708 0 00-8.7-8.699zm13.931-2.1a3.132 3.132 0 113.13-3.13 3.135 3.135 0 01-3.131 3.136z" fill="#111"/></clipPath><clipPath id="gc"><path fill="none" d="M0 0h52v52H0z"/></clipPath></defs><g data-name="Icon/logo-twitter" clip-path="url(#ga)"><path fill="none" d="M0 0h52v52H0z"/><g data-name="Grupo 226" clip-path="url(#gb)"><g data-name="Fill/Color/Title" clip-path="url(#gc)"><path data-name="Fill/Color/Black" d="M0 0h52v52H0z"/></g></g></g></symbol>
    <symbol viewBox="0 0 23 22" id="z-lock" xmlns="http://www.w3.org/2000/svg"><defs><clipPath id="ha"><path fill="none" d="M0 0h23v22H0z"/></clipPath><clipPath id="hb"><path d="M16.912 23H1.087A1.068 1.068 0 010 21.955V8.649A1.068 1.068 0 011.087 7.6h1.88v1.049a1.066 1.066 0 001.018 1.043H2.176v11.217h13.648V9.694H14a1.067 1.067 0 001.033-1.046V7.6h1.879A1.069 1.069 0 0118 8.649v13.306A1.069 1.069 0 0116.912 23zM9 19.2a1.069 1.069 0 01-1.088-1.045v-1.046a2.972 2.972 0 01-1.976-2.757A3.011 3.011 0 019 11.4a3.011 3.011 0 013.066 2.947 2.969 2.969 0 01-1.977 2.755v-.855A1.069 1.069 0 009 15.206a.894.894 0 10-.008 0 1.069 1.069 0 00-1.085 1.045v.855a3.194 3.194 0 002.176 0v1.046A1.068 1.068 0 019 19.2zM5.142 7.6H2.967V5.8a5.656 5.656 0 011.752-4.116A6.132 6.132 0 019 0a6.131 6.131 0 014.28 1.684A5.656 5.656 0 0115.032 5.8v1.8h-2.175V5.8A3.743 3.743 0 009 2.091 3.744 3.744 0 005.142 5.8v1.8z" transform="translate(-.126)" fill="#111"/></clipPath><clipPath id="hc"><path fill="none" d="M0 0h23v23H0z"/></clipPath></defs><g data-name="Icon/lock" clip-path="url(#ha)"><path fill="none" d="M0 0h23v23H0z"/><path data-name="Mask" d="M18.912 23H3.087A1.068 1.068 0 012 21.955V8.649A1.068 1.068 0 013.087 7.6h1.88v1.049a1.066 1.066 0 001.018 1.043H4.176v11.217h13.648V9.694H16a1.067 1.067 0 001.033-1.046V7.6h1.879A1.069 1.069 0 0120 8.649v13.306A1.069 1.069 0 0118.912 23zM11 19.2a1.069 1.069 0 01-1.088-1.045v-1.046a2.972 2.972 0 01-1.976-2.757A3.011 3.011 0 0111 11.4a3.011 3.011 0 013.066 2.947 2.969 2.969 0 01-1.977 2.755v-.855A1.069 1.069 0 0011 15.206a.894.894 0 10-.008 0 1.069 1.069 0 00-1.085 1.045v.855a3.194 3.194 0 002.176 0v1.046A1.068 1.068 0 0111 19.2zM7.142 7.6H4.967V5.8a5.656 5.656 0 011.752-4.116A6.132 6.132 0 0111 0a6.131 6.131 0 014.28 1.684A5.656 5.656 0 0117.032 5.8v1.8h-2.175V5.8A3.743 3.743 0 0011 2.091 3.744 3.744 0 007.142 5.8v1.8z" fill="#111"/><g transform="translate(2.126)" clip-path="url(#hb)"><g data-name="Fill/Color/Title" transform="translate(-2.126)" clip-path="url(#hc)"><path data-name="Fill/Color/Black" d="M0 0h23v23H0z"/></g></g></g></symbol>
    <symbol viewBox="0 0 24 24" id="z-next" xmlns="http://www.w3.org/2000/svg"><defs><clipPath id="ia"><path fill="none" d="M0 0h24v24H0z"/></clipPath><clipPath id="ib"><path d="M6 4.218L1.567 0 0 1.491 6 7.2l6-5.709L10.433 0z" transform="rotate(-90 6 6)" fill="#111"/></clipPath></defs><g data-name="Icon/small-right" clip-path="url(#ia)"><path fill="none" d="M0 0h24v24H0z"/><path data-name="Mask" d="M12.618 12L8.4 16.433 9.891 18l5.709-6-5.709-6L8.4 7.567z" fill="#111"/><g transform="translate(8.4 6)" clip-path="url(#ib)"><g data-name="Fill/Color/Title" transform="translate(-8.4 -6)" clip-path="url(#ia)"><path data-name="Fill/Color/Black" d="M0 0h24v24H0z"/></g></g></g></symbol>
    <symbol viewBox="0 0 24 24" id="z-prev" xmlns="http://www.w3.org/2000/svg"><defs><clipPath id="ja"><path fill="none" d="M0 0h24v24H0z"/></clipPath><clipPath id="jb"><path d="M6 4.218L1.567 0 0 1.491 6 7.2l6-5.709L10.433 0z" transform="rotate(90 3.6 3.6)" fill="#111"/></clipPath></defs><g data-name="Icon/small-right" clip-path="url(#ja)"><path fill="none" d="M0 0h24v24H0z"/><path data-name="Mask" d="M11.382 12L15.6 7.567 14.109 6 8.4 12l5.709 6 1.491-1.567z" fill="#111"/><g transform="translate(8.4 6)" clip-path="url(#jb)"><g data-name="Fill/Color/Title" transform="translate(-8.4 -6)" clip-path="url(#ja)"><path data-name="Fill/Color/Black" d="M0 0h24v24H0z"/></g></g></g></symbol>
    <symbol viewBox="0 0 20 20" id="z-search" xmlns="http://www.w3.org/2000/svg"><defs><clipPath id="ka"><path fill="none" d="M0 0h20v20H0z"/></clipPath><clipPath id="kb"><path d="M18.792 20l-4.843-4.843a8.61 8.61 0 001.208-1.208L20 18.792 18.793 20zm-10.25-2.916a8.541 8.541 0 116.614-3.136L14.008 12.8 12.8 14.009l1.147 1.147a8.557 8.557 0 01-5.405 1.928zm0-15.376a6.834 6.834 0 106.834 6.834 6.841 6.841 0 00-6.834-6.834z"/></clipPath></defs><g data-name="Icon/Search" transform="translate(0 .001)" clip-path="url(#ka)"><path fill="none" d="M0 0h20v20H0z"/><path data-name="Mask" d="M18.792 20l-4.843-4.843a8.61 8.61 0 001.208-1.208L20 18.792 18.793 20zm-10.25-2.916a8.541 8.541 0 116.614-3.136L14.008 12.8 12.8 14.009l1.147 1.147a8.557 8.557 0 01-5.405 1.928zm0-15.376a6.834 6.834 0 106.834 6.834 6.841 6.841 0 00-6.834-6.834z"/><g clip-path="url(#kb)"><g data-name="Fill/Color/Title" clip-path="url(#ka)"><path data-name="Fill/Color/Black" d="M0 0h20v20H0z"/></g></g></g></symbol>
    <symbol viewBox="0 0 22 22" id="z-truck" xmlns="http://www.w3.org/2000/svg"><defs><clipPath id="la"><path fill="none" d="M0 0h22v22H0z"/></clipPath><clipPath id="lb"><path d="M14.351 20a3.988 3.988 0 01-2.724-1.053 3.586 3.586 0 01-1.171-2.547h1.207a1.049 1.049 0 00.98-.646 1.627 1.627 0 00-.1.556 1.809 1.809 0 003.612 0 1.627 1.627 0 00-.1-.556 1.048 1.048 0 00.98.646h1.207a3.585 3.585 0 01-1.172 2.551A3.988 3.988 0 0114.351 20zm-3.9-3.6H9.6a1.021 1.021 0 01-1.046-.991V4.661a1.05 1.05 0 002.091-.061v-1H9.6a1.027 1.027 0 00-1.044.925V1.982H1.045A1.02 1.02 0 010 .991 1.02 1.02 0 011.045 0H9.6a1.02 1.02 0 011.045.991V3.6H17.2a1.036 1.036 0 011.014.75l.833 3.162 3.372 1.6A.992.992 0 0123 10v5.405a1.02 1.02 0 01-1.045.991h-3.708v-.09a3.544 3.544 0 00-.55-1.892h3.211v-3.8l-3.223-1.529a1.008 1.008 0 01-.546-.646l-.752-2.853h-5.742v8.828H11a3.542 3.542 0 00-.55 1.892v.09zm5.591-.676a1.842 1.842 0 00-3.379-.037.994.994 0 00-1.006-1.271H11a4.011 4.011 0 016.694 0h-.654a1.02 1.02 0 00-1.04.989.945.945 0 00.054.316zM5.8 15.5h-.95a.992.992 0 110-1.981h.95a.992.992 0 110 1.981zm0-4.5H2.947a.992.992 0 110-1.982H5.8A.992.992 0 115.8 11zm9.5-.9h-1.9a1.02 1.02 0 01-1.044-1V7.3a1.047 1.047 0 012.091 0v.811h.853a.992.992 0 110 1.982zM5.8 6.5H1.045A1.02 1.02 0 010 5.5a1.02 1.02 0 011.045-.99H5.8a1.021 1.021 0 011.046.99 1.021 1.021 0 01-1.046.986z" transform="translate(0 -.063)" fill="#111"/></clipPath><clipPath id="lc"><path fill="none" d="M0 0h23v23H0z"/></clipPath></defs><g data-name="Icon/delivery-fast" clip-path="url(#la)"><path fill="none" d="M0 0h23v23H0z"/><path data-name="Mask" d="M14.351 21a3.988 3.988 0 01-2.724-1.053 3.586 3.586 0 01-1.171-2.547h1.207a1.049 1.049 0 00.98-.646 1.627 1.627 0 00-.1.556 1.809 1.809 0 003.612 0 1.627 1.627 0 00-.1-.556 1.048 1.048 0 00.98.646h1.207a3.585 3.585 0 01-1.172 2.551A3.988 3.988 0 0114.351 21zm-3.9-3.6H9.6a1.021 1.021 0 01-1.046-.991V5.661a1.05 1.05 0 002.091-.061v-1H9.6a1.027 1.027 0 00-1.044.925V2.982H1.045A1.02 1.02 0 010 1.991 1.02 1.02 0 011.045 1H9.6a1.02 1.02 0 011.045.991V4.6H17.2a1.036 1.036 0 011.014.75l.833 3.162 3.372 1.6A.992.992 0 0123 11v5.405a1.02 1.02 0 01-1.045.991h-3.708v-.09a3.544 3.544 0 00-.55-1.892h3.211v-3.8l-3.223-1.529a1.008 1.008 0 01-.546-.646l-.752-2.853h-5.742v8.828H11a3.542 3.542 0 00-.55 1.892v.09zm5.591-.676a1.842 1.842 0 00-3.379-.037.994.994 0 00-1.006-1.271H11a4.011 4.011 0 016.694 0h-.654a1.02 1.02 0 00-1.04.989.945.945 0 00.054.316zM5.8 16.5h-.95a.992.992 0 110-1.981h.95a.992.992 0 110 1.981zm0-4.5H2.947a.992.992 0 110-1.982H5.8A.992.992 0 115.8 12zm9.5-.9h-1.9a1.02 1.02 0 01-1.044-1V8.3a1.047 1.047 0 012.091 0v.811h.853a.992.992 0 110 1.982zM5.8 7.5H1.045A1.02 1.02 0 010 6.5a1.02 1.02 0 011.045-.99H5.8a1.021 1.021 0 011.046.99 1.021 1.021 0 01-1.046.986z" fill="#111"/><g transform="translate(0 1.063)" clip-path="url(#lb)"><g data-name="Fill/Color/Title" transform="translate(0 -1.063)" clip-path="url(#lc)"><path data-name="Fill/Color/Black" d="M0 0h23v23H0z"/></g></g></g></symbol>
    <symbol viewBox="0 0 20 20" id="z-user" xmlns="http://www.w3.org/2000/svg"><defs><clipPath id="ma"><path fill="none" d="M0 0h20v20H0z"/></clipPath><clipPath id="mb"><path d="M19.091 20a.91.91 0 01-.909-.909 7.364 7.364 0 00-7.356-7.356h-.809a5.878 5.878 0 003.723-1.346 9.164 9.164 0 00-2.913-.472h-.819a4.05 4.05 0 10-.027 0h-.807a9.163 9.163 0 00-2.913.472 5.879 5.879 0 003.711 1.346h-.8a7.364 7.364 0 00-7.356 7.356.909.909 0 11-1.818 0 9.164 9.164 0 016.26-8.7 5.868 5.868 0 117.479 0 9.165 9.165 0 016.26 8.7.91.91 0 01-.906.909z" fill="#111"/></clipPath></defs><g data-name="Icon/single-03" clip-path="url(#ma)"><path fill="none" d="M0 0h20v20H0z"/><path data-name="Mask" d="M19.091 20a.91.91 0 01-.909-.909 7.364 7.364 0 00-7.356-7.356h-.809a5.878 5.878 0 003.723-1.346 9.164 9.164 0 00-2.913-.472h-.819a4.05 4.05 0 10-.027 0h-.807a9.163 9.163 0 00-2.913.472 5.879 5.879 0 003.711 1.346h-.8a7.364 7.364 0 00-7.356 7.356.909.909 0 11-1.818 0 9.164 9.164 0 016.26-8.7 5.868 5.868 0 117.479 0 9.165 9.165 0 016.26 8.7.91.91 0 01-.906.909z" fill="#111"/><g clip-path="url(#mb)"><g data-name="Fill/Color/Title" clip-path="url(#ma)"><path data-name="Fill/Color/Black" d="M0 0h20v20H0z"/></g></g></g></symbol>
</svg>